<?xml version="1.0" encoding="utf-8"?><!-- Uploaded to: SVG Repo, www.svgrepo.com, Generator: SVG Repo Mixer Tools -->
<svg version="1.1" id="Uploaded to svgrepo.com" xmlns="http://www.w3.org/2000/svg" xmlns:xlink="http://www.w3.org/1999/xlink" 
	 width="800px" height="800px" viewBox="0 0 32 32" xml:space="preserve">
<style type="text/css">
	.bentblocks_een{fill:#0B1719;}
	.st0{fill:#0B1719;}
</style>
<path class="bentblocks_een" d="M26,19v2h-6v6h-2v-6h-6v-2h6v-6h2v6H26z M29,20c0,5.523-4.477,10-10,10
	c-2.566,0-4.906-0.967-6.676-2.556C11.334,28.406,9.986,29,8.5,29C5.467,29,3,26.533,3,23.5v-15C3,5.467,5.467,3,8.5,3
	S14,5.467,14,8.5v2.838C15.471,10.487,17.178,10,19,10C24.523,10,29,14.477,29,20z M5,15h5.338c0.456-0.788,1.016-1.507,1.662-2.141
	V8.5C12,6.57,10.43,5,8.5,5S5,6.57,5,8.5V15z M8.5,27c0.968,0,1.842-0.396,2.474-1.034C9.734,24.3,9,22.236,9,20
	c0-1.045,0.161-2.053,0.458-3H5v6.5C5,25.43,6.57,27,8.5,27z M27,20c0-4.411-3.589-8-8-8s-8,3.589-8,8c0,4.411,3.589,8,8,8
	S27,24.411,27,20z"/>
</svg>