<svg version="1.1" id="Layer_1" xmlns="http://www.w3.org/2000/svg" xmlns:xlink="http://www.w3.org/1999/xlink" x="0px" y="0px"
	 width="100%" viewBox="0 0 623 450" enable-background="new 0 0 623 450" xml:space="preserve">
<path fill="#FFFFFF" opacity="1.000000" stroke="none" 
	d="
M379.000000,451.000000 
	C252.695969,451.000000 126.891922,451.000000 1.043944,451.000000 
	C1.043944,301.064240 1.043944,151.128448 1.043944,1.096328 
	C208.554062,1.096328 416.108185,1.096328 623.831177,1.096328 
	C623.831177,150.999847 623.831177,300.999908 623.831177,451.000000 
	C542.461731,451.000000 460.980865,451.000000 379.000000,451.000000 
M113.970039,231.285614 
	C114.071442,236.368927 114.179390,241.452133 114.273079,246.535583 
	C114.594666,263.985870 118.929932,280.675598 123.648369,297.329865 
	C129.719894,318.759979 140.931671,337.434418 153.453537,355.586456 
	C163.084381,369.547516 174.335648,381.954803 187.465332,392.467438 
	C209.405701,410.034546 233.302780,423.980682 260.882751,431.284882 
	C277.021515,435.558990 293.273529,438.849396 309.845306,439.535187 
	C339.107635,440.746155 367.172333,434.468872 394.514069,424.257812 
	C409.985413,418.479889 423.116730,408.942688 436.701202,399.976746 
	C449.876831,391.280670 461.421692,380.867126 471.553955,368.900543 
	C488.747681,348.594147 502.497253,326.403687 510.584717,300.687286 
	C517.375549,279.093842 521.877747,257.177948 521.620850,234.673340 
	C521.464844,221.011261 519.115234,207.268631 516.656067,193.761536 
	C512.210571,169.344559 502.996643,146.629028 489.488251,125.783325 
	C475.994598,104.960350 459.503693,86.949852 439.646667,71.846024 
	C409.134003,48.637188 374.417175,36.689526 336.863861,32.096909 
	C317.749146,29.759251 298.689392,31.283409 279.878906,35.244488 
	C254.691055,40.548508 230.616592,48.533485 209.160614,63.482307 
	C194.676926,73.573380 179.900375,83.255051 168.144043,96.583229 
	C148.516098,118.835487 132.353989,143.171005 124.151596,172.145554 
	C118.756180,191.204605 113.768974,210.305969 113.970039,231.285614 
z"/>
<path fill="#9435EA" opacity="1.000000" stroke="none" 
	d="
M113.979767,230.809082 
	C113.768974,210.305969 118.756180,191.204605 124.151596,172.145554 
	C132.353989,143.171005 148.516098,118.835487 168.144043,96.583229 
	C179.900375,83.255051 194.676926,73.573380 209.160614,63.482307 
	C230.616592,48.533485 254.691055,40.548508 279.878906,35.244488 
	C298.689392,31.283409 317.749146,29.759251 336.863861,32.096909 
	C374.417175,36.689526 409.134003,48.637188 439.646667,71.846024 
	C459.503693,86.949852 475.994598,104.960350 489.488251,125.783325 
	C502.996643,146.629028 512.210571,169.344559 516.656067,193.761536 
	C519.115234,207.268631 521.464844,221.011261 521.620850,234.673340 
	C521.877747,257.177948 517.375549,279.093842 510.584717,300.687286 
	C502.497253,326.403687 488.747681,348.594147 471.553955,368.900543 
	C461.421692,380.867126 449.876831,391.280670 436.701202,399.976746 
	C423.116730,408.942688 409.985413,418.479889 394.514069,424.257812 
	C367.172333,434.468872 339.107635,440.746155 309.845306,439.535187 
	C293.273529,438.849396 277.021515,435.558990 260.882751,431.284882 
	C233.302780,423.980682 209.405701,410.034546 187.465332,392.467438 
	C174.335648,381.954803 163.084381,369.547516 153.453537,355.586456 
	C140.931671,337.434418 129.719894,318.759979 123.648369,297.329865 
	C118.929932,280.675598 114.594666,263.985870 114.273079,246.535583 
	C114.179390,241.452133 114.071442,236.368927 113.979767,230.809082 
M428.163544,371.671844 
	C433.192963,367.072784 438.532227,362.766632 443.201630,357.827240 
	C474.255402,324.978149 491.268494,286.093079 492.803802,240.729492 
	C494.290344,196.807846 480.644104,157.806854 453.208221,123.818901 
	C434.726898,100.924011 411.491089,83.983582 384.102234,72.845062 
	C344.563293,56.765327 304.324829,55.493824 263.929047,68.331169 
	C233.926285,77.865707 208.064346,94.617599 187.149368,118.371269 
	C154.950607,154.940201 140.032791,197.558868 142.818420,246.355743 
	C144.676743,278.908722 155.152908,308.232544 173.558777,335.136749 
	C192.632584,363.017334 217.811005,383.196198 248.401688,396.763947 
	C266.310516,404.707001 285.203857,408.902435 304.849365,410.399536 
	C325.196625,411.950104 345.015350,409.679382 364.570435,404.525146 
	C387.922607,398.370087 408.488342,386.622986 428.163544,371.671844 
z"/>
<path fill="#FEFEFE" opacity="1.000000" stroke="none" 
	d="
M427.867310,371.877808 
	C408.488342,386.622986 387.922607,398.370087 364.570435,404.525146 
	C345.015350,409.679382 325.196625,411.950104 304.849365,410.399536 
	C285.203857,408.902435 266.310516,404.707001 248.401688,396.763947 
	C217.811005,383.196198 192.632584,363.017334 173.558777,335.136749 
	C155.152908,308.232544 144.676743,278.908722 142.818420,246.355743 
	C140.032791,197.558868 154.950607,154.940201 187.149368,118.371269 
	C208.064346,94.617599 233.926285,77.865707 263.929047,68.331169 
	C304.324829,55.493824 344.563293,56.765327 384.102234,72.845062 
	C411.491089,83.983582 434.726898,100.924011 453.208221,123.818901 
	C480.644104,157.806854 494.290344,196.807846 492.803802,240.729492 
	C491.268494,286.093079 474.255402,324.978149 443.201630,357.827240 
	C438.532227,362.766632 433.192963,367.072784 427.867310,371.877808 
M380.943939,297.968933 
	C380.943939,297.968933 381.001190,298.018890 381.471313,298.053375 
	C381.471313,298.053375 381.932770,297.957855 382.450195,297.987823 
	C382.622864,297.992371 382.795563,297.996948 383.390961,298.179230 
	C383.390961,298.179230 383.848969,298.157532 384.527344,298.679840 
	C391.319489,298.786499 398.112701,299.006989 404.903259,298.943970 
	C407.632324,298.918640 410.355621,298.270996 413.779541,297.779846 
	C414.212280,296.220306 414.645020,294.660767 415.711670,293.308594 
	C421.797272,302.621155 441.027985,302.675354 449.736328,298.030426 
	C454.301575,295.595367 458.602722,292.939850 460.252869,286.694519 
	C460.825256,285.024139 461.397675,283.353760 462.709808,281.654083 
	C467.584442,279.460175 465.844238,274.663483 467.066376,270.050476 
	C467.009277,264.370575 466.952179,258.690674 466.990814,252.214127 
	C465.982147,248.481277 464.973511,244.748413 464.003540,240.283554 
	C460.540863,231.721909 454.455383,225.752350 446.101715,221.929382 
	C445.199219,221.516357 444.662170,220.304733 444.907745,219.413025 
	C450.943604,219.259766 456.979462,219.106506 462.916290,219.148499 
	C462.916290,219.148499 463.090424,219.281204 463.267944,219.495529 
	C463.612091,219.530365 463.795135,219.384262 464.334137,218.689178 
	C464.508820,217.902832 464.683533,217.116501 465.125000,215.382172 
	C465.149811,204.088745 465.219788,192.795044 465.146423,181.502258 
	C465.136414,179.965393 464.409668,178.433182 463.419464,176.313934 
	C454.819275,176.220520 446.216980,176.011688 437.621399,176.169418 
	C436.454285,176.190826 435.320892,178.047806 434.088165,179.877930 
	C434.071899,181.257095 434.055634,182.636276 433.368683,183.844070 
	C421.587250,170.973587 393.730591,173.211319 385.976227,193.808380 
	C384.648682,198.220398 383.321167,202.632416 381.974854,206.333252 
	C381.894196,205.867828 381.813568,205.402420 381.878235,204.484741 
	C381.878235,204.484741 381.695831,204.046127 381.828979,203.112625 
	C381.759003,195.091156 381.689026,187.069702 381.737640,178.258911 
	C380.671814,177.533157 379.615051,176.192230 378.538727,176.176300 
	C367.120880,176.007233 355.699799,176.070679 344.279907,176.012817 
	C342.153381,176.002045 340.613983,176.365479 340.942871,179.934448 
	C340.926727,187.575912 340.856873,195.218002 340.945099,202.858261 
	C340.960571,204.196045 341.534027,206.637848 342.029938,206.685242 
	C346.270233,207.090546 345.289612,210.165039 345.303284,212.621262 
	C345.402344,230.393738 345.441223,248.166534 344.736542,266.051788 
	C343.827789,266.383087 342.919006,266.714386 341.397827,267.362061 
	C341.297089,268.258087 341.196320,269.154144 340.964661,270.970001 
	C340.952454,277.710449 340.857910,284.452271 340.973114,291.190552 
	C341.012909,293.518158 341.574524,295.836823 342.415955,298.576019 
	C342.850677,298.648621 343.285400,298.721191 344.515411,299.083252 
	C355.646698,298.995300 366.777985,298.907318 378.570221,298.872101 
	C379.003845,298.794464 379.437439,298.716797 380.401306,298.776001 
	C380.570740,298.484406 380.740173,298.192810 380.943939,297.968933 
M338.638397,262.541992 
	C339.571869,258.041168 340.505371,253.540314 341.713348,248.133774 
	C341.799103,242.084778 341.884888,236.035782 342.062073,229.114777 
	C341.016479,224.073975 339.970886,219.033157 339.328247,213.519897 
	C337.571289,205.454224 333.800812,198.462494 327.947998,191.875580 
	C319.387604,181.970322 308.406403,176.632523 295.495941,176.015778 
	C279.924866,175.271942 264.318573,175.231598 248.725708,175.014359 
	C246.490326,174.983200 244.244980,175.667480 241.522049,176.022964 
	C241.522049,176.022964 241.047607,175.937775 240.507675,175.274841 
	C239.856110,175.170670 239.204651,174.976196 238.552948,174.975357 
	C214.465668,174.944351 190.378372,174.922531 166.291122,174.943634 
	C165.178833,174.944611 164.066910,175.352386 162.436905,176.035675 
	C162.322525,176.699066 162.208130,177.362442 161.896484,178.942322 
	C161.896484,187.874329 161.896484,196.806335 161.896484,205.975403 
	C163.484650,205.723038 164.634720,205.540283 166.362366,205.265762 
	C166.362366,225.822662 166.362366,245.865021 165.548676,265.926697 
	C164.429688,266.340027 163.310699,266.753357 162.000748,268.066925 
	C162.059418,277.155823 162.118103,286.244720 162.169739,296.095184 
	C163.965607,296.798126 165.757263,298.100433 167.557983,298.113068 
	C190.190811,298.272095 212.825043,298.272797 235.458633,298.213959 
	C237.347458,298.209076 239.234421,297.481598 241.615204,297.121216 
	C241.615204,297.121216 242.089386,296.982788 242.722397,297.391754 
	C243.987823,297.691193 245.252731,298.248505 246.518738,298.250946 
	C262.822235,298.282471 279.136322,298.583679 295.426056,298.094330 
	C307.942566,297.718292 318.140930,291.801025 326.333374,282.446106 
	C326.839935,281.867676 326.750244,280.767090 327.282318,279.385651 
	C328.195312,278.081696 329.108276,276.777740 330.791290,275.316193 
	C331.859344,274.541046 333.406586,273.994781 333.906494,272.948242 
	C335.472168,269.670532 336.642883,266.204193 338.638397,262.541992 
z"/>
<path fill="#A04EE9" opacity="1.000000" stroke="none" 
	d="
M330.021240,275.473755 
	C329.108276,276.777740 328.195312,278.081696 326.756714,279.675964 
	C325.663361,280.274078 325.005554,280.482666 324.541016,280.904205 
	C314.155884,290.327850 302.165955,295.356201 287.939667,295.054504 
	C275.138977,294.782990 262.328033,294.972473 249.521759,295.010040 
	C247.100708,295.017181 244.680344,295.265564 242.159683,294.903076 
	C242.053314,285.627106 242.046936,276.850647 242.372314,268.024536 
	C244.081970,267.293182 245.459869,266.611481 247.263824,265.937561 
	C248.454056,264.594025 249.872574,263.248077 249.883560,261.890717 
	C250.031738,243.590042 250.010666,225.287674 249.929825,206.986176 
	C249.923889,205.641998 249.406158,203.322845 248.666931,203.118423 
	C244.019043,201.833130 245.033676,198.257065 245.001495,195.090729 
	C244.944000,189.434464 244.951721,183.777527 245.399719,178.085175 
	C257.114044,178.351440 268.360107,178.688141 279.608032,178.938644 
	C284.252472,179.042084 288.932312,178.613480 293.541595,179.029800 
	C306.084320,180.162750 317.269806,184.482864 326.032104,194.353241 
	C328.963623,199.847717 331.745239,205.063278 334.824249,210.096924 
	C335.774475,211.650345 337.535492,212.707794 338.925293,213.992340 
	C339.970886,219.033157 341.016479,224.073975 341.604065,229.569275 
	C340.442719,230.760696 339.156036,231.477188 339.129333,232.237854 
	C338.933960,237.806610 338.991150,243.384232 338.689117,249.217316 
	C337.912689,252.607635 337.415771,255.739670 336.672485,259.125671 
	C334.291138,264.744385 332.156189,270.109070 330.021240,275.473755 
M307.100739,211.909409 
	C307.100739,211.909409 307.065613,211.870392 307.018127,211.194931 
	C306.364258,210.455093 305.710388,209.715240 304.586731,208.909119 
	C304.586731,208.909119 304.112274,208.905777 303.502380,208.586411 
	C301.320221,207.182755 299.238068,204.798904 296.936676,204.564209 
	C290.709900,203.929138 284.388458,204.127472 278.109344,204.246796 
	C277.480377,204.258728 276.884125,205.989609 275.584900,207.442398 
	C275.438171,207.738571 275.163940,208.034332 275.162933,208.330994 
	C275.101349,226.646255 275.030701,244.961731 275.110718,263.276520 
	C275.114868,264.223419 276.424286,265.164581 276.789612,266.723480 
	C275.534088,270.037140 277.964203,269.897888 279.930817,269.932770 
	C284.392029,270.011902 288.865967,270.145111 293.316071,269.907074 
	C300.894348,269.501740 308.741577,262.727325 310.180603,255.350632 
	C310.375031,254.353882 309.221954,253.094238 308.903748,251.168503 
	C309.605316,247.775681 310.306885,244.382874 311.832031,240.966660 
	C312.542572,240.099960 313.883972,239.211945 313.855499,238.370209 
	C313.725616,234.527664 313.211212,230.698105 312.793884,226.096298 
	C311.538147,222.041855 310.282410,217.987396 308.936188,213.323929 
	C308.338409,212.862869 307.740601,212.401810 307.100739,211.909409 
z"/>
<path fill="#A04FE9" opacity="1.000000" stroke="none" 
	d="
M464.014771,176.898819 
	C464.409668,178.433182 465.136414,179.965393 465.146423,181.502258 
	C465.219788,192.795044 465.149811,204.088745 464.796265,215.939850 
	C464.183594,216.635315 464.025482,216.861298 463.563629,216.966156 
	C454.583313,216.714859 446.032562,216.672867 437.276978,216.367950 
	C436.612274,213.572998 436.242065,211.020767 435.675995,208.512711 
	C433.923157,200.746002 425.138092,196.604721 419.183807,200.708038 
	C416.997833,202.214462 415.757538,203.950714 418.239929,206.667511 
	C418.545715,208.681152 418.799255,210.335098 418.730896,212.031067 
	C418.569824,213.186234 418.388306,215.040009 418.944611,215.297073 
	C424.100769,217.679688 429.213959,220.472061 434.667206,221.826614 
	C444.876862,224.362656 453.419922,228.925888 459.543274,237.705093 
	C460.543365,239.139023 462.467682,239.928329 463.964844,241.015564 
	C464.973511,244.748413 465.982147,248.481277 466.558075,252.668488 
	C465.419189,254.618011 464.208588,256.078888 464.104279,257.614929 
	C463.824524,261.733917 464.018463,265.885101 464.002228,270.425659 
	C463.310150,274.446320 462.640106,278.064850 461.970093,281.683350 
	C461.397675,283.353760 460.825256,285.024139 459.697693,287.038574 
	C456.411804,289.371735 453.809052,291.573303 450.926239,293.309937 
	C442.402100,298.445038 433.334229,298.354675 423.979919,295.347534 
	C422.298889,294.333313 420.717499,293.629791 418.855286,292.814423 
	C418.071228,292.091003 417.567932,291.479462 417.052155,290.505249 
	C415.651611,287.967133 414.263550,285.791626 412.875519,283.616150 
	C412.331482,283.906982 411.787445,284.197815 411.243408,284.488617 
	C411.464966,288.180481 411.686523,291.872314 411.453400,295.645935 
	C402.684326,295.681793 394.369904,295.635956 386.037170,295.147461 
	C386.005188,285.424072 386.128815,276.139191 385.849609,266.866455 
	C385.800171,265.224152 384.072357,263.632385 383.072876,261.601532 
	C384.366180,260.472687 385.688629,259.184692 387.049072,259.143280 
	C393.966614,258.932678 400.894012,259.046204 407.817963,259.043732 
	C414.683228,259.041290 414.683228,259.039978 415.034790,266.101929 
	C414.430664,271.294739 417.676605,274.292969 424.121124,274.965790 
	C429.027985,275.478088 435.121094,272.437775 435.544586,269.147461 
	C435.584503,268.837219 434.407623,268.370361 433.903015,267.606628 
	C434.347778,265.743652 434.685242,264.250305 435.355316,262.700378 
	C438.464905,259.598572 436.059967,257.455078 433.887390,256.366302 
	C429.640991,254.238251 425.161072,252.196747 420.546478,251.263687 
	C411.532776,249.441162 402.702667,247.461731 395.071289,241.543442 
	C392.692139,238.121506 390.367371,235.043381 388.051056,231.572266 
	C387.353790,228.473190 386.648041,225.767105 385.957214,222.626755 
	C385.635590,218.808884 385.455078,215.396988 384.849854,212.062149 
	C384.703583,211.255981 383.153748,210.704529 382.171997,209.657745 
	C382.071320,208.507721 382.048004,207.735886 382.029602,206.989120 
	C382.034546,207.014206 381.993622,207.044434 381.993652,207.044434 
	C383.321167,202.632416 384.648682,198.220398 386.437683,193.415558 
	C388.421997,191.959610 390.434296,191.219482 391.385101,189.778793 
	C396.131775,182.586380 403.264648,179.833450 411.253113,179.124512 
	C420.674805,178.288361 428.267792,182.221344 434.845459,189.404984 
	C434.576752,187.608475 434.308075,185.811951 434.039368,184.015442 
	C434.055634,182.636276 434.071899,181.257095 434.583069,179.422577 
	C443.034973,178.985916 450.994995,179.126450 458.946442,178.926239 
	C460.651825,178.883301 462.326111,177.606964 464.014771,176.898819 
z"/>
<path fill="#A04EE8" opacity="1.000000" stroke="none" 
	d="
M162.176773,295.333618 
	C162.118103,286.244720 162.059418,277.155823 162.399017,267.744507 
	C164.251740,267.822571 165.706192,268.223053 167.160660,268.623535 
	C167.100967,267.593079 167.041275,266.562683 167.296875,265.327698 
	C168.077820,263.990143 168.933365,262.863129 168.950989,261.723236 
	C169.240250,242.999603 169.434601,224.274429 169.589386,205.549103 
	C169.595169,204.848907 169.095520,203.616501 168.645096,203.522202 
	C164.112000,202.573395 165.013855,199.081192 164.994659,196.032074 
	C164.957031,190.057663 164.957275,184.083023 165.414871,178.067902 
	C190.576691,177.997055 215.265518,177.966797 239.807159,178.332764 
	C239.437439,180.513351 239.037155,182.296295 239.022461,184.082397 
	C238.951660,192.697708 238.984711,201.313889 238.515915,209.981201 
	C231.041031,209.995697 224.031128,209.958771 217.022491,209.547943 
	C216.738052,207.793213 216.452347,206.412384 216.253113,204.703278 
	C215.731369,203.625641 215.143936,202.246628 214.511673,202.225754 
	C209.062637,202.045959 203.600113,201.990906 198.156738,202.235291 
	C197.358643,202.271118 196.640106,204.078308 195.607391,205.361359 
	C195.225952,209.210464 194.978043,212.769745 195.117233,216.313828 
	C195.152771,217.218430 196.414612,218.074890 197.188629,219.179840 
	C197.264236,219.406219 197.353149,219.875229 197.019806,220.090302 
	C195.343735,224.305023 198.659485,222.876053 200.051346,222.895035 
	C210.142410,223.032791 220.237747,223.058105 230.327805,222.887436 
	C232.162079,222.856415 233.978394,221.763229 235.885010,221.612671 
	C235.908813,230.485458 235.850601,238.905975 235.430634,247.135437 
	C222.852890,246.681702 210.637390,246.370590 198.419998,246.247162 
	C197.429031,246.237137 196.425095,247.512497 195.269897,248.533081 
	C195.459671,254.606247 195.806702,260.336914 196.130096,266.476257 
	C196.351547,267.451263 196.578659,268.502899 196.844345,268.512726 
	C202.725235,268.730408 208.610443,268.845795 214.494324,268.827332 
	C214.577499,268.827057 214.654556,266.873413 214.746063,265.403381 
	C214.890137,263.066071 215.022614,261.156860 215.140060,259.464417 
	C223.990356,259.464417 232.281479,259.464417 241.015762,259.464417 
	C241.142242,262.261536 241.266739,265.014893 241.269531,268.237061 
	C241.041168,277.549377 240.934479,286.392883 240.374207,295.170624 
	C216.604828,295.061493 193.289047,295.006439 169.973236,294.991211 
	C167.374481,294.989502 164.775604,295.214020 162.176773,295.333618 
z"/>
<path fill="#A250EA" opacity="1.000000" stroke="none" 
	d="
M341.088348,179.007294 
	C340.613983,176.365479 342.153381,176.002045 344.279907,176.012817 
	C355.699799,176.070679 367.120880,176.007233 378.538727,176.176300 
	C379.615051,176.192230 380.671814,177.533157 381.315948,178.724243 
	C380.261383,180.744949 379.166290,182.275970 379.082794,183.860275 
	C378.837891,188.507401 379.030487,193.176086 378.981995,197.835602 
	C378.952576,200.664673 379.921387,203.956970 375.361481,204.657013 
	C374.710968,204.756866 374.463654,207.483078 374.019226,209.447296 
	C374.006683,211.693832 373.680145,213.568207 374.102936,215.254730 
	C374.454712,216.658005 375.686737,217.840591 376.685425,219.469666 
	C376.921204,221.305984 377.064728,222.793365 377.069183,224.281174 
	C377.099304,234.319168 377.256195,244.360901 377.021545,254.393219 
	C376.944061,257.706879 375.831360,260.996307 375.126251,264.747742 
	C375.050110,265.796875 375.039703,266.395020 375.063049,267.353699 
	C376.434906,268.485291 377.773010,269.256378 379.088470,270.493835 
	C379.006836,279.197357 378.947845,287.434509 378.431702,295.732239 
	C366.345917,295.754272 354.717224,295.715729 343.065918,295.236328 
	C343.018280,288.013855 343.101257,281.228821 342.884003,274.453369 
	C342.836395,272.968048 341.719849,271.516998 341.095581,270.050171 
	C341.196320,269.154144 341.297089,268.258087 341.863831,267.511536 
	C343.628845,267.989685 344.927826,268.318359 346.226837,268.647034 
	C346.196564,267.743866 346.166321,266.840698 346.525574,265.854553 
	C347.279907,264.088135 347.953217,262.406281 347.961578,260.721100 
	C348.041748,244.600006 348.137970,228.476532 347.909546,212.358261 
	C347.859131,208.802032 351.436127,203.594055 344.475281,202.060928 
	C344.092163,201.976532 344.019653,199.933441 344.009094,198.800140 
	C343.961060,193.648346 344.201447,188.481339 343.853485,183.352661 
	C343.751404,181.848587 342.054352,180.452744 341.088348,179.007294 
z"/>
<path fill="#40215D" opacity="1.000000" stroke="none" 
	d="
M242.259674,295.402618 
	C244.680344,295.265564 247.100708,295.017181 249.521759,295.010040 
	C262.328033,294.972473 275.138977,294.782990 287.939667,295.054504 
	C302.165955,295.356201 314.155884,290.327850 324.541016,280.904205 
	C325.005554,280.482666 325.663361,280.274078 326.584564,279.937866 
	C326.750244,280.767090 326.839935,281.867676 326.333374,282.446106 
	C318.140930,291.801025 307.942566,297.718292 295.426056,298.094330 
	C279.136322,298.583679 262.822235,298.282471 246.518738,298.250946 
	C245.252731,298.248505 243.987823,297.691193 242.470856,296.926941 
	C242.232788,296.108978 242.246231,295.755798 242.259674,295.402618 
z"/>
<path fill="#D17BF6" opacity="1.000000" stroke="none" 
	d="
M325.996704,194.004288 
	C317.269806,184.482864 306.084320,180.162750 293.541595,179.029800 
	C288.932312,178.613480 284.252472,179.042084 279.608032,178.938644 
	C268.360107,178.688141 257.114044,178.351440 245.110657,178.016602 
	C243.609985,177.740097 242.865891,177.496475 242.077423,176.946228 
	C242.023453,176.433289 242.013840,176.226990 242.004242,176.020676 
	C244.244980,175.667480 246.490326,174.983200 248.725708,175.014359 
	C264.318573,175.231598 279.924866,175.271942 295.495941,176.015778 
	C308.406403,176.632523 319.387604,181.970322 327.902496,192.519379 
	C327.236908,193.443542 326.616791,193.723907 325.996704,194.004288 
z"/>
<path fill="#8D46CE" opacity="1.000000" stroke="none" 
	d="
M341.015625,179.470871 
	C342.054352,180.452744 343.751404,181.848587 343.853485,183.352661 
	C344.201447,188.481339 343.961060,193.648346 344.009094,198.800140 
	C344.019653,199.933441 344.092163,201.976532 344.475281,202.060928 
	C351.436127,203.594055 347.859131,208.802032 347.909546,212.358261 
	C348.137970,228.476532 348.041748,244.600006 347.961578,260.721100 
	C347.953217,262.406281 347.279907,264.088135 346.365784,265.821899 
	C345.816498,265.872223 345.499115,265.939240 345.499115,265.939240 
	C345.441223,248.166534 345.402344,230.393738 345.303284,212.621262 
	C345.289612,210.165039 346.270233,207.090546 342.029938,206.685242 
	C341.534027,206.637848 340.960571,204.196045 340.945099,202.858261 
	C340.856873,195.218002 340.926727,187.575912 341.015625,179.470871 
z"/>
<path fill="#8D46CE" opacity="1.000000" stroke="none" 
	d="
M164.941864,178.108490 
	C164.957275,184.083023 164.957031,190.057663 164.994659,196.032074 
	C165.013855,199.081192 164.112000,202.573395 168.645096,203.522202 
	C169.095520,203.616501 169.595169,204.848907 169.589386,205.549103 
	C169.434601,224.274429 169.240250,242.999603 168.950989,261.723236 
	C168.933365,262.863129 168.077820,263.990143 167.133942,265.409729 
	C166.655716,265.696320 166.362366,265.907379 166.362366,265.907379 
	C166.362366,245.865021 166.362366,225.822662 166.362366,205.265762 
	C164.634720,205.540283 163.484650,205.723038 161.896484,205.975403 
	C161.896484,196.806335 161.896484,187.874329 162.256927,178.465637 
	C162.790421,177.962799 162.963455,177.936646 163.439362,177.925934 
	C164.142090,177.997055 164.541977,178.052765 164.941864,178.108490 
z"/>
<path fill="#41205F" opacity="1.000000" stroke="none" 
	d="
M162.173248,295.714417 
	C164.775604,295.214020 167.374481,294.989502 169.973236,294.991211 
	C193.289047,295.006439 216.604828,295.061493 240.385437,295.483948 
	C240.940903,296.272003 241.031570,296.680908 241.122223,297.089844 
	C239.234421,297.481598 237.347458,298.209076 235.458633,298.213959 
	C212.825043,298.272797 190.190811,298.272095 167.557983,298.113068 
	C165.757263,298.100433 163.965607,296.798126 162.173248,295.714417 
z"/>
<path fill="#D47CF6" opacity="1.000000" stroke="none" 
	d="
M165.414856,178.067902 
	C164.541977,178.052765 164.142090,177.997055 163.397919,177.538849 
	C163.020691,176.614456 162.987762,176.092575 162.954834,175.570694 
	C164.066910,175.352386 165.178833,174.944611 166.291122,174.943634 
	C190.378372,174.922531 214.465668,174.944351 238.552948,174.975357 
	C239.204651,174.976196 239.856110,175.170670 240.747223,175.905243 
	C240.962646,176.733490 240.938507,176.931305 240.696228,177.180328 
	C240.212372,177.402435 240.037598,177.640244 239.955902,177.954987 
	C239.958069,177.964996 239.954330,177.936539 239.954330,177.936554 
	C215.265518,177.966797 190.576691,177.997055 165.414856,178.067902 
z"/>
<path fill="#C97DEE" opacity="1.000000" stroke="none" 
	d="
M463.984192,240.649567 
	C462.467682,239.928329 460.543365,239.139023 459.543274,237.705093 
	C453.419922,228.925888 444.876862,224.362656 434.667206,221.826614 
	C429.213959,220.472061 424.100769,217.679688 418.944611,215.297073 
	C418.388306,215.040009 418.569824,213.186234 419.047424,212.166321 
	C424.057922,214.464371 428.430023,216.669220 433.439240,219.195358 
	C433.771545,216.370041 433.922089,215.090240 434.369263,214.039581 
	C435.125000,215.756439 435.584137,217.244141 436.479309,218.829163 
	C439.262115,219.105499 441.608887,219.284531 443.955627,219.463562 
	C444.662170,220.304733 445.199219,221.516357 446.101715,221.929382 
	C454.455383,225.752350 460.540863,231.721909 463.984192,240.649567 
z"/>
<path fill="#CF7CF5" opacity="1.000000" stroke="none" 
	d="
M433.704041,183.929749 
	C434.308075,185.811951 434.576752,187.608475 434.845459,189.404984 
	C428.267792,182.221344 420.674805,178.288361 411.253113,179.124512 
	C403.264648,179.833450 396.131775,182.586380 391.385101,189.778793 
	C390.434296,191.219482 388.421997,191.959610 386.534363,193.048431 
	C393.730591,173.211319 421.587250,170.973587 433.704041,183.929749 
z"/>
<path fill="#44265F" opacity="1.000000" stroke="none" 
	d="
M417.064667,290.867920 
	C417.567932,291.479462 418.071228,292.091003 418.951782,293.136963 
	C420.912598,294.266998 422.496063,294.962616 424.079559,295.658264 
	C433.334229,298.354675 442.402100,298.445038 450.926239,293.309937 
	C453.809052,291.573303 456.411804,289.371735 459.478760,287.367859 
	C458.602722,292.939850 454.301575,295.595367 449.736328,298.030426 
	C441.027985,302.675354 421.797272,302.621155 415.241669,292.960754 
	C415.536011,292.031219 416.300323,291.449585 417.064667,290.867920 
z"/>
<path fill="#8A44C9" opacity="1.000000" stroke="none" 
	d="
M383.119568,262.017303 
	C384.072357,263.632385 385.800171,265.224152 385.849609,266.866455 
	C386.128815,276.139191 386.005188,285.424072 385.707001,295.308167 
	C384.879791,296.660217 384.364380,297.408875 383.848969,298.157532 
	C383.848969,298.157532 383.390961,298.179230 383.179352,297.622070 
	C382.916595,287.034119 382.865479,277.003357 382.866608,266.561523 
	C382.985779,264.772736 383.052673,263.395020 383.119568,262.017303 
z"/>
<path fill="#8D46CE" opacity="1.000000" stroke="none" 
	d="
M374.029724,208.993774 
	C374.463654,207.483078 374.710968,204.756866 375.361481,204.657013 
	C379.921387,203.956970 378.952576,200.664673 378.981995,197.835602 
	C379.030487,193.176086 378.837891,188.507401 379.082794,183.860275 
	C379.166290,182.275970 380.261383,180.744949 381.256653,179.118912 
	C381.689026,187.069702 381.759003,195.091156 381.640930,203.669510 
	C381.303314,204.546875 381.396637,204.783752 381.732910,204.936996 
	C381.813568,205.402420 381.894196,205.867828 381.984253,206.688843 
	C381.993622,207.044434 382.034546,207.014206 381.665344,206.957458 
	C379.635193,207.140930 376.936523,205.257919 376.619415,209.004120 
	C375.509308,208.999802 374.769501,208.996796 374.029724,208.993774 
z"/>
<path fill="#D787F7" opacity="1.000000" stroke="none" 
	d="
M463.717102,176.606384 
	C462.326111,177.606964 460.651825,178.883301 458.946442,178.926239 
	C450.994995,179.126450 443.034973,178.985916 434.624939,179.011063 
	C435.320892,178.047806 436.454285,176.190826 437.621399,176.169418 
	C446.216980,176.011688 454.819275,176.220520 463.717102,176.606384 
z"/>
<path fill="#44265F" opacity="1.000000" stroke="none" 
	d="
M384.188171,298.418701 
	C384.364380,297.408875 384.879791,296.660217 385.725342,295.750824 
	C394.369904,295.635956 402.684326,295.681793 411.700867,295.885986 
	C412.629181,296.665039 412.855377,297.285828 413.081543,297.906586 
	C410.355621,298.270996 407.632324,298.918640 404.903259,298.943970 
	C398.112701,299.006989 391.319489,298.786499 384.188171,298.418701 
z"/>
<path fill="#B765F1" opacity="1.000000" stroke="none" 
	d="
M326.032104,194.353241 
	C326.616791,193.723907 327.236908,193.443542 327.985168,192.828217 
	C333.800812,198.462494 337.571289,205.454224 339.126770,213.756119 
	C337.535492,212.707794 335.774475,211.650345 334.824249,210.096924 
	C331.745239,205.063278 328.963623,199.847717 326.032104,194.353241 
z"/>
<path fill="#351A4E" opacity="1.000000" stroke="none" 
	d="
M343.088562,295.677185 
	C354.717224,295.715729 366.345917,295.754272 378.721405,295.882324 
	C379.889832,296.064301 380.311462,296.156799 380.766022,296.546082 
	C380.866394,297.234863 380.933777,297.626892 381.001190,298.018890 
	C381.001190,298.018890 380.943939,297.968933 380.687927,297.944702 
	C380.094849,298.042847 379.907898,298.282410 379.871063,298.639130 
	C379.437439,298.716797 379.003845,298.794464 377.916870,298.615173 
	C366.082397,298.503387 354.901276,298.648590 343.720123,298.793793 
	C343.285400,298.721191 342.850677,298.648621 342.225067,298.022552 
	C342.385620,296.871796 342.737091,296.274475 343.088562,295.677185 
z"/>
<path fill="#914ECF" opacity="1.000000" stroke="none" 
	d="
M338.968658,248.959045 
	C338.991150,243.384232 338.933960,237.806610 339.129333,232.237854 
	C339.156036,231.477188 340.442719,230.760696 341.558350,230.005280 
	C341.884888,236.035782 341.799103,242.084778 341.268921,248.580353 
	C340.205902,249.004288 339.587280,248.981659 338.968658,248.959045 
z"/>
<path fill="#41205F" opacity="1.000000" stroke="none" 
	d="
M444.431702,219.438293 
	C441.608887,219.284531 439.262115,219.105499 436.531219,218.499359 
	C436.591980,217.591797 437.036896,217.111343 437.481812,216.630890 
	C446.032562,216.672867 454.583313,216.714859 463.435242,217.183899 
	C463.496063,218.058395 463.255676,218.505814 463.015320,218.953247 
	C456.979462,219.106506 450.943604,219.259766 444.431702,219.438293 
z"/>
<path fill="#8346BA" opacity="1.000000" stroke="none" 
	d="
M343.065918,295.236328 
	C342.737091,296.274475 342.385620,296.871796 341.966003,297.814331 
	C341.574524,295.836823 341.012909,293.518158 340.973114,291.190552 
	C340.857910,284.452271 340.952454,277.710449 341.030151,270.510071 
	C341.719849,271.516998 342.836395,272.968048 342.884003,274.453369 
	C343.101257,281.228821 343.018280,288.013855 343.065918,295.236328 
z"/>
<path fill="#683596" opacity="1.000000" stroke="none" 
	d="
M330.406281,275.394958 
	C332.156189,270.109070 334.291138,264.744385 336.953094,259.354309 
	C337.642303,260.489624 337.804504,261.650299 337.966675,262.810974 
	C336.642883,266.204193 335.472168,269.670532 333.906494,272.948242 
	C333.406586,273.994781 331.859344,274.541046 330.406281,275.394958 
z"/>
<path fill="#9047D3" opacity="1.000000" stroke="none" 
	d="
M464.024231,270.023499 
	C464.018463,265.885101 463.824524,261.733917 464.104279,257.614929 
	C464.208588,256.078888 465.419189,254.618011 466.510223,253.066803 
	C466.952179,258.690674 467.009277,264.370575 466.708679,270.382141 
	C465.575378,270.483704 464.799805,270.253601 464.024231,270.023499 
z"/>
<path fill="#8A44C9" opacity="1.000000" stroke="none" 
	d="
M413.430542,297.843201 
	C412.855377,297.285828 412.629181,296.665039 412.155548,295.804230 
	C411.686523,291.872314 411.464966,288.180481 411.243408,284.488617 
	C411.787445,284.197815 412.331482,283.906982 412.875519,283.616150 
	C414.263550,285.791626 415.651611,287.967133 417.052155,290.505249 
	C416.300323,291.449585 415.536011,292.031219 414.924683,292.857056 
	C414.645020,294.660767 414.212280,296.220306 413.430542,297.843201 
z"/>
<path fill="#8346BA" opacity="1.000000" stroke="none" 
	d="
M338.302551,262.676483 
	C337.804504,261.650299 337.642303,260.489624 337.199493,259.100342 
	C337.415771,255.739670 337.912689,252.607635 338.689117,249.217316 
	C339.587280,248.981659 340.205902,249.004288 341.131714,249.033203 
	C340.505371,253.540314 339.571869,258.041168 338.302551,262.676483 
z"/>
<path fill="#8346BA" opacity="1.000000" stroke="none" 
	d="
M464.002197,270.425659 
	C464.799805,270.253601 465.575378,270.483704 466.631958,270.842926 
	C465.844238,274.663483 467.584442,279.460175 462.339935,281.668701 
	C462.640106,278.064850 463.310150,274.446320 464.002197,270.425659 
z"/>
<path fill="#8346BA" opacity="1.000000" stroke="none" 
	d="
M344.117767,298.938538 
	C354.901276,298.648590 366.082397,298.503387 377.586426,298.588776 
	C366.777985,298.907318 355.646698,298.995300 344.117767,298.938538 
z"/>
<path fill="#E5D7F1" opacity="1.000000" stroke="none" 
	d="
M382.814331,266.972595 
	C382.865479,277.003357 382.916595,287.034119 382.968018,297.533203 
	C382.795563,297.996948 382.622864,297.992371 382.213074,297.588043 
	C381.891907,296.426971 381.807800,295.665649 381.755219,294.443939 
	C381.716766,285.750183 381.646851,277.516815 381.677399,268.943512 
	C381.767639,268.135193 381.757416,267.666870 382.012085,267.133057 
	C382.456085,267.035950 382.635223,267.004272 382.814331,266.972595 
z"/>
<path fill="#C7A7E4" opacity="1.000000" stroke="none" 
	d="
M240.914368,177.129135 
	C240.938507,176.931305 240.962646,176.733490 241.017197,176.236725 
	C241.047607,175.937775 241.522049,176.022964 241.763153,176.021820 
	C242.013840,176.226990 242.023453,176.433289 242.045700,177.388840 
	C241.994080,187.456711 241.929825,196.775360 241.761810,206.160309 
	C241.658066,206.226624 241.422882,206.153610 241.283234,205.691071 
	C241.039108,196.172623 240.934647,187.116730 240.870575,177.829651 
	C240.910980,177.598480 240.914368,177.129135 240.914368,177.129135 
z"/>
<path fill="#C7A7E4" opacity="1.000000" stroke="none" 
	d="
M241.368713,297.105530 
	C241.031570,296.680908 240.940903,296.272003 240.839020,295.549744 
	C240.934479,286.392883 241.041168,277.549377 241.440353,268.294434 
	C241.732849,267.883057 242.040573,268.074219 242.040558,268.074219 
	C242.046936,276.850647 242.053314,285.627106 242.159683,294.903076 
	C242.246231,295.755798 242.232788,296.108978 242.154358,296.722473 
	C242.089386,296.982788 241.615204,297.121216 241.368713,297.105530 
z"/>
<path fill="#C390EA" opacity="1.000000" stroke="none" 
	d="
M165.955521,265.917053 
	C166.362366,265.907379 166.655716,265.696320 166.818649,265.614288 
	C167.041275,266.562683 167.100967,267.593079 167.160660,268.623535 
	C165.706192,268.223053 164.251740,267.822571 162.494507,267.294373 
	C163.310699,266.753357 164.429688,266.340027 165.955521,265.917053 
z"/>
<path fill="#C390EA" opacity="1.000000" stroke="none" 
	d="
M345.117828,265.995514 
	C345.499115,265.939240 345.816498,265.872223 345.976257,265.904877 
	C346.166321,266.840698 346.196564,267.743866 346.226837,268.647034 
	C344.927826,268.318359 343.628845,267.989685 342.170044,267.353333 
	C342.919006,266.714386 343.827789,266.383087 345.117828,265.995514 
z"/>
<path fill="#4E2A6F" opacity="1.000000" stroke="none" 
	d="
M462.965820,219.050873 
	C463.255676,218.505814 463.496063,218.058395 463.864807,217.393219 
	C464.025482,216.861298 464.183594,216.635315 464.662872,216.413849 
	C464.683533,217.116501 464.508820,217.902832 463.872192,218.854401 
	C463.410217,219.019623 463.090424,219.281204 463.090424,219.281204 
	C463.090424,219.281204 462.916290,219.148499 462.965820,219.050873 
z"/>
<path fill="#B674E7" opacity="1.000000" stroke="none" 
	d="
M381.723694,294.904358 
	C381.807800,295.665649 381.891907,296.426971 381.954376,297.573059 
	C381.932770,297.957855 381.471313,298.053375 381.236267,298.036133 
	C380.933777,297.626892 380.866394,297.234863 380.915039,296.306946 
	C381.261993,295.482117 381.492859,295.193237 381.723694,294.904358 
z"/>
<path fill="#A04EE8" opacity="1.000000" stroke="none" 
	d="
M162.695862,175.803192 
	C162.987762,176.092575 163.020691,176.614456 163.095062,177.523422 
	C162.963455,177.936646 162.790421,177.962799 162.355560,178.007385 
	C162.208130,177.362442 162.322525,176.699066 162.695862,175.803192 
z"/>
<path fill="#C97DEE" opacity="1.000000" stroke="none" 
	d="
M463.179199,219.388367 
	C463.090424,219.281204 463.410217,219.019623 463.613647,219.038422 
	C463.795135,219.384262 463.612091,219.530365 463.179199,219.388367 
z"/>
<path fill="#A250EA" opacity="1.000000" stroke="none" 
	d="
M381.805573,204.710876 
	C381.396637,204.783752 381.303314,204.546875 381.574341,204.136261 
	C381.695831,204.046127 381.878235,204.484741 381.805573,204.710876 
z"/>
<path fill="#8346BA" opacity="1.000000" stroke="none" 
	d="
M380.136169,298.707581 
	C379.907898,298.282410 380.094849,298.042847 380.670776,297.910828 
	C380.740173,298.192810 380.570740,298.484406 380.136169,298.707581 
z"/>
<path fill="#FDFBFE" opacity="1.000000" stroke="none" 
	d="
M311.008453,240.990051 
	C310.306885,244.382874 309.605316,247.775681 308.520813,251.743805 
	C304.465271,261.667877 298.467133,267.479523 287.558350,266.215698 
	C284.443695,265.854889 281.266388,266.034637 278.141785,265.500427 
	C278.182220,245.838852 278.198730,226.643356 278.667084,207.391693 
	C284.408691,207.367905 289.698486,207.400253 295.079315,207.611053 
	C295.170380,207.789490 295.549683,207.919800 295.549683,207.919800 
	C295.549683,207.919800 295.927063,207.783401 296.272583,207.899017 
	C298.755920,209.041458 300.893799,210.068298 303.216736,211.386749 
	C305.629974,216.767670 307.858154,221.856995 310.034790,227.376312 
	C310.325012,232.200882 310.666748,236.595474 311.008453,240.990051 
z"/>
<path fill="#F9F6FB" opacity="1.000000" stroke="none" 
	d="
M242.372314,268.024536 
	C242.040573,268.074219 241.732849,267.883057 241.562042,267.825653 
	C241.266739,265.014893 241.142242,262.261536 241.015762,259.464417 
	C232.281479,259.464417 223.990356,259.464417 215.140060,259.464417 
	C215.022614,261.156860 214.890137,263.066071 214.306732,265.483398 
	C208.361481,265.954224 202.867142,265.916962 197.338791,265.437042 
	C197.377258,259.848022 197.449768,254.701645 197.955902,249.532791 
	C200.877899,249.478653 203.366287,249.446960 206.027710,249.565826 
	C206.200729,249.716385 206.658142,249.736954 206.658142,249.736954 
	C206.658142,249.736954 207.011078,249.445099 207.459503,249.593887 
	C216.150574,249.868011 224.394470,250.095520 232.634277,249.992966 
	C233.697876,249.979706 234.740189,248.257202 235.792374,247.326477 
	C235.850601,238.905975 235.908813,230.485458 235.696075,221.237747 
	C222.734451,220.232101 210.043808,220.053665 197.353149,219.875229 
	C197.353149,219.875229 197.264236,219.406219 197.271912,218.729095 
	C197.324646,213.859116 197.369705,209.666229 197.844147,205.434830 
	C203.839157,205.554764 209.404800,205.713226 214.897400,206.315277 
	C214.931366,207.951309 215.038361,209.143768 215.103271,210.742722 
	C215.809174,211.832047 216.544479,213.091156 217.307068,213.107895 
	C224.415085,213.263885 231.530533,213.297455 238.635254,213.082916 
	C239.424484,213.059097 240.160370,211.269440 241.055939,209.896149 
	C241.268204,208.380249 241.345551,207.266922 241.422882,206.153610 
	C241.422882,206.153610 241.658066,206.226624 242.164719,206.155121 
	C243.874115,205.787094 245.076843,205.490570 246.837769,205.056442 
	C246.837769,225.674057 246.837769,245.801941 246.837769,265.929810 
	C245.459869,266.611481 244.081970,267.293182 242.372314,268.024536 
z"/>
<path fill="#8D46CE" opacity="1.000000" stroke="none" 
	d="
M247.263824,265.937561 
	C246.837769,245.801941 246.837769,225.674057 246.837769,205.056442 
	C245.076843,205.490570 243.874115,205.787094 242.268463,206.088806 
	C241.929825,196.775360 241.994080,187.456711 242.090057,177.695465 
	C242.865891,177.496475 243.609985,177.740097 244.643127,178.052307 
	C244.951721,183.777527 244.944000,189.434464 245.001495,195.090729 
	C245.033676,198.257065 244.019043,201.833130 248.666931,203.118423 
	C249.406158,203.322845 249.923889,205.641998 249.929825,206.986176 
	C250.010666,225.287674 250.031738,243.590042 249.883560,261.890717 
	C249.872574,263.248077 248.454056,264.594025 247.263824,265.937561 
z"/>
<path fill="#914ECF" opacity="1.000000" stroke="none" 
	d="
M278.215240,207.447845 
	C278.198730,226.643356 278.182220,245.838852 277.893127,265.531494 
	C277.455719,266.055237 277.290863,266.081848 277.126038,266.108429 
	C276.424286,265.164581 275.114868,264.223419 275.110718,263.276520 
	C275.030701,244.961731 275.101349,226.646255 275.162933,208.330994 
	C275.163940,208.034332 275.438171,207.738571 276.265503,207.208740 
	C277.369141,207.132660 277.792175,207.290253 278.215240,207.447845 
z"/>
<path fill="#C977F4" opacity="1.000000" stroke="none" 
	d="
M276.957825,266.415955 
	C277.290863,266.081848 277.455719,266.055237 277.869202,265.997559 
	C281.266388,266.034637 284.443695,265.854889 287.558350,266.215698 
	C298.467133,267.479523 304.465271,261.667877 308.415344,252.137726 
	C309.221954,253.094238 310.375031,254.353882 310.180603,255.350632 
	C308.741577,262.727325 300.894348,269.501740 293.316071,269.907074 
	C288.865967,270.145111 284.392029,270.011902 279.930817,269.932770 
	C277.964203,269.897888 275.534088,270.037140 276.957825,266.415955 
z"/>
<path fill="#40215D" opacity="1.000000" stroke="none" 
	d="
M278.667084,207.391693 
	C277.792175,207.290253 277.369141,207.132660 276.609375,206.948914 
	C276.884125,205.989609 277.480377,204.258728 278.109344,204.246796 
	C284.388458,204.127472 290.709900,203.929138 296.936676,204.564209 
	C299.238068,204.798904 301.320221,207.182755 303.758545,209.064972 
	C303.687012,210.060745 303.359344,210.577942 303.031647,211.095139 
	C300.893799,210.068298 298.755920,209.041458 296.178802,207.718811 
	C295.486542,207.220230 295.236115,207.223419 294.988251,207.432587 
	C289.698486,207.400253 284.408691,207.367905 278.667084,207.391693 
z"/>
<path fill="#713DA1" opacity="1.000000" stroke="none" 
	d="
M303.216736,211.386749 
	C303.359344,210.577942 303.687012,210.060745 304.063477,209.224670 
	C304.112274,208.905777 304.586731,208.909119 304.818054,209.266525 
	C305.721436,210.372757 306.393524,211.121567 307.065613,211.870392 
	C307.065613,211.870392 307.100739,211.909409 307.129242,212.248856 
	C307.780701,213.036530 308.403687,213.484741 309.026642,213.932953 
	C310.282410,217.987396 311.538147,222.041855 312.474884,226.511948 
	C311.466034,226.933838 310.776154,226.940079 310.086304,226.946304 
	C307.858154,221.856995 305.629974,216.767670 303.216736,211.386749 
z"/>
<path fill="#8A44C9" opacity="1.000000" stroke="none" 
	d="
M310.034790,227.376312 
	C310.776154,226.940079 311.466034,226.933838 312.495422,226.895752 
	C313.211212,230.698105 313.725616,234.527664 313.855499,238.370209 
	C313.883972,239.211945 312.542572,240.099960 311.420227,240.978363 
	C310.666748,236.595474 310.325012,232.200882 310.034790,227.376312 
z"/>
<path fill="#914ECF" opacity="1.000000" stroke="none" 
	d="
M307.041870,211.532654 
	C306.393524,211.121567 305.721436,210.372757 305.052917,209.299652 
	C305.710388,209.715240 306.364258,210.455093 307.041870,211.532654 
z"/>
<path fill="#914ECF" opacity="1.000000" stroke="none" 
	d="
M308.981415,213.628448 
	C308.403687,213.484741 307.780701,213.036530 307.150269,212.264526 
	C307.740601,212.401810 308.338409,212.862869 308.981415,213.628448 
z"/>
<path fill="#F9F6FB" opacity="1.000000" stroke="none" 
	d="
M382.866608,266.561523 
	C382.635223,267.004272 382.456085,267.035950 381.629333,267.041870 
	C379.656647,266.980438 378.331573,266.944763 377.011444,266.515747 
	C376.408234,265.513855 375.800110,264.905334 375.191986,264.296814 
	C375.831360,260.996307 376.944061,257.706879 377.021545,254.393219 
	C377.256195,244.360901 377.099304,234.319168 377.069183,224.281174 
	C377.064728,222.793365 376.921204,221.305984 376.824585,219.045380 
	C376.868042,215.183395 376.928894,212.094406 376.989746,209.005432 
	C376.936523,205.257919 379.635193,207.140930 381.660400,206.932373 
	C382.048004,207.735886 382.071320,208.507721 382.103638,210.108856 
	C382.646393,215.759338 383.180176,220.580566 383.705261,225.780487 
	C384.765930,229.170517 385.835358,232.181824 386.912292,235.541779 
	C388.881775,237.947739 390.843719,240.005081 392.835449,242.428635 
	C395.032471,244.586777 396.929077,247.107224 399.418427,248.031906 
	C406.446136,250.642395 413.697571,252.664062 420.898590,254.789948 
	C426.240723,256.367065 431.965332,257.169037 435.022705,262.756927 
	C434.685242,264.250305 434.347778,265.743652 433.590698,267.742279 
	C427.238495,273.552979 422.548523,272.942535 415.357391,265.928986 
	C414.683228,259.039978 414.683228,259.041290 407.817963,259.043732 
	C400.894012,259.046204 393.966614,258.932678 387.049072,259.143280 
	C385.688629,259.184692 384.366180,260.472687 383.072876,261.601532 
	C383.052673,263.395020 382.985779,264.772736 382.866608,266.561523 
z"/>
<path fill="#44265F" opacity="1.000000" stroke="none" 
	d="
M435.355347,262.700378 
	C431.965332,257.169037 426.240723,256.367065 420.898590,254.789948 
	C413.697571,252.664062 406.446136,250.642395 399.418427,248.031906 
	C396.929077,247.107224 395.032471,244.586777 393.222168,242.405457 
	C394.094604,241.973114 394.610138,241.930176 395.125641,241.887253 
	C402.702667,247.461731 411.532776,249.441162 420.546478,251.263687 
	C425.161072,252.196747 429.640991,254.238251 433.887390,256.366302 
	C436.059967,257.455078 438.464905,259.598572 435.355347,262.700378 
z"/>
<path fill="#F9F6FB" opacity="1.000000" stroke="none" 
	d="
M434.072632,213.810425 
	C433.922089,215.090240 433.771545,216.370041 433.439240,219.195358 
	C428.430023,216.669220 424.057922,214.464371 419.369293,212.124283 
	C418.799255,210.335098 418.545715,208.681152 418.531494,206.430603 
	C422.757904,201.923248 427.426880,201.753891 430.441711,205.888351 
	C432.118988,208.188522 432.892029,211.148056 434.072632,213.810425 
z"/>
<path fill="#4E2A6F" opacity="1.000000" stroke="none" 
	d="
M434.369232,214.039581 
	C432.892029,211.148056 432.118988,208.188522 430.441711,205.888351 
	C427.426880,201.753891 422.757904,201.923248 418.479248,206.070892 
	C415.757538,203.950714 416.997833,202.214462 419.183807,200.708038 
	C425.138092,196.604721 433.923157,200.746002 435.675995,208.512711 
	C436.242065,211.020767 436.612274,213.572998 437.276978,216.367950 
	C437.036896,217.111343 436.591980,217.591797 436.095154,218.402039 
	C435.584137,217.244141 435.125000,215.756439 434.369232,214.039581 
z"/>
<path fill="#C977F4" opacity="1.000000" stroke="none" 
	d="
M415.034790,266.101929 
	C422.548523,272.942535 427.238495,273.552979 433.483368,268.111877 
	C434.407623,268.370361 435.584503,268.837219 435.544586,269.147461 
	C435.121094,272.437775 429.027985,275.478088 424.121124,274.965790 
	C417.676605,274.292969 414.430664,271.294739 415.034790,266.101929 
z"/>
<path fill="#8A44C9" opacity="1.000000" stroke="none" 
	d="
M383.713928,225.401779 
	C383.180176,220.580566 382.646393,215.759338 382.181000,210.487030 
	C383.153748,210.704529 384.703583,211.255981 384.849854,212.062149 
	C385.455078,215.396988 385.635590,218.808884 385.602417,222.672272 
	C384.726471,223.901978 384.220184,224.651871 383.713928,225.401779 
z"/>
<path fill="#683596" opacity="1.000000" stroke="none" 
	d="
M395.071289,241.543442 
	C394.610138,241.930176 394.094604,241.973114 393.192383,242.039215 
	C390.843719,240.005081 388.881775,237.947739 386.942810,235.180862 
	C387.324677,233.635971 387.683624,232.800613 388.042572,231.965256 
	C390.367371,235.043381 392.692139,238.121506 395.071289,241.543442 
z"/>
<path fill="#713DA1" opacity="1.000000" stroke="none" 
	d="
M388.051056,231.572266 
	C387.683624,232.800613 387.324677,233.635971 386.935242,234.832245 
	C385.835358,232.181824 384.765930,229.170517 383.705231,225.780487 
	C384.220184,224.651871 384.726471,223.901978 385.587524,223.106537 
	C386.648041,225.767105 387.353790,228.473190 388.051056,231.572266 
z"/>
<path fill="#8A44C9" opacity="1.000000" stroke="none" 
	d="
M423.979919,295.347534 
	C422.496063,294.962616 420.912598,294.266998 419.232605,293.248840 
	C420.717499,293.629791 422.298889,294.333313 423.979919,295.347534 
z"/>
<path fill="#41205F" opacity="1.000000" stroke="none" 
	d="
M205.854675,249.415268 
	C203.366287,249.446960 200.877899,249.478653 197.760040,249.382111 
	C196.562790,248.899445 195.994980,248.545013 195.427170,248.190582 
	C196.425095,247.512497 197.429031,246.237137 198.419998,246.247162 
	C210.637390,246.370590 222.852890,246.681702 235.430634,247.135437 
	C234.740189,248.257202 233.697876,249.979706 232.634277,249.992966 
	C224.394470,250.095520 216.150574,249.868011 207.285599,249.456085 
	C206.338562,249.069611 206.069031,249.151520 205.854675,249.415268 
z"/>
<path fill="#CF7CF5" opacity="1.000000" stroke="none" 
	d="
M197.019806,220.090302 
	C210.043808,220.053665 222.734451,220.232101 235.614044,220.785461 
	C233.978394,221.763229 232.162079,222.856415 230.327805,222.887436 
	C220.237747,223.058105 210.142410,223.032791 200.051346,222.895035 
	C198.659485,222.876053 195.343735,224.305023 197.019806,220.090302 
z"/>
<path fill="#41205F" opacity="1.000000" stroke="none" 
	d="
M240.921021,210.298737 
	C240.160370,211.269440 239.424484,213.059097 238.635254,213.082916 
	C231.530533,213.297455 224.415085,213.263885 217.307068,213.107895 
	C216.544479,213.091156 215.809174,211.832047 215.423920,210.709747 
	C216.198166,210.154129 216.609711,210.037994 217.021240,209.921844 
	C224.031128,209.958771 231.041031,209.995697 238.830444,210.082977 
	C240.046997,210.188446 240.484009,210.243591 240.921021,210.298737 
z"/>
<path fill="#41205F" opacity="1.000000" stroke="none" 
	d="
M214.970428,205.871674 
	C209.404800,205.713226 203.839157,205.554764 197.476013,205.278397 
	C196.413925,205.128967 196.149338,205.097427 195.884750,205.065872 
	C196.640106,204.078308 197.358643,202.271118 198.156738,202.235291 
	C203.600113,201.990906 209.062637,202.045959 214.511673,202.225754 
	C215.143936,202.246628 215.731369,203.625641 216.039673,204.824112 
	C215.460831,205.443771 215.204376,205.643265 214.970428,205.871674 
z"/>
<path fill="#8D46CE" opacity="1.000000" stroke="none" 
	d="
M241.055939,209.896149 
	C240.484009,210.243591 240.046997,210.188446 239.295441,210.031525 
	C238.984711,201.313889 238.951660,192.697708 239.022461,184.082397 
	C239.037155,182.296295 239.437439,180.513351 239.807159,178.332748 
	C239.954330,177.936539 239.958069,177.964996 240.174805,177.986923 
	C240.391556,178.008850 240.830170,178.060837 240.830170,178.060837 
	C240.934647,187.116730 241.039108,196.172623 241.283234,205.691071 
	C241.345551,207.266922 241.268204,208.380249 241.055939,209.896149 
z"/>
<path fill="#D787F7" opacity="1.000000" stroke="none" 
	d="
M197.372818,265.879669 
	C202.867142,265.916962 208.361481,265.954224 214.295135,265.911438 
	C214.654556,266.873413 214.577499,268.827057 214.494324,268.827332 
	C208.610443,268.845795 202.725235,268.730408 196.844345,268.512726 
	C196.578659,268.502899 196.351547,267.451263 196.433411,266.424316 
	C196.964508,265.935699 197.168655,265.907684 197.372818,265.879669 
z"/>
<path fill="#8F58C1" opacity="1.000000" stroke="none" 
	d="
M197.338791,265.437042 
	C197.168655,265.907684 196.964508,265.935699 196.457062,266.015625 
	C195.806702,260.336914 195.459671,254.606247 195.269897,248.533081 
	C195.994980,248.545013 196.562790,248.899445 197.326431,249.404572 
	C197.449768,254.701645 197.377258,259.848022 197.338791,265.437042 
z"/>
<path fill="#8F58C1" opacity="1.000000" stroke="none" 
	d="
M195.607391,205.361359 
	C196.149338,205.097427 196.413925,205.128967 197.046631,205.316925 
	C197.369705,209.666229 197.324646,213.859116 197.196304,218.502716 
	C196.414612,218.074890 195.152771,217.218430 195.117233,216.313828 
	C194.978043,212.769745 195.225952,209.210464 195.607391,205.361359 
z"/>
<path fill="#8D46CE" opacity="1.000000" stroke="none" 
	d="
M214.897400,206.315277 
	C215.204376,205.643265 215.460831,205.443771 215.953217,205.152390 
	C216.452347,206.412384 216.738052,207.793213 217.022491,209.547943 
	C216.609711,210.037994 216.198166,210.154129 215.465988,210.303253 
	C215.038361,209.143768 214.931366,207.951309 214.897400,206.315277 
z"/>
<path fill="#8346BA" opacity="1.000000" stroke="none" 
	d="
M381.755188,294.443939 
	C381.492859,295.193237 381.261993,295.482117 380.882080,296.010132 
	C380.311462,296.156799 379.889832,296.064301 379.178528,295.821747 
	C378.947845,287.434509 379.006836,279.197357 379.329224,270.383728 
	C380.254028,269.632660 380.915497,269.458069 381.576935,269.283478 
	C381.646851,277.516815 381.716766,285.750183 381.755188,294.443939 
z"/>
<path fill="#9047D3" opacity="1.000000" stroke="none" 
	d="
M376.619446,209.004120 
	C376.928894,212.094406 376.868042,215.183395 376.668030,218.696655 
	C375.686737,217.840591 374.454712,216.658005 374.102936,215.254730 
	C373.680145,213.568207 374.006683,211.693832 374.019226,209.447296 
	C374.769501,208.996796 375.509308,208.999802 376.619446,209.004120 
z"/>
<path fill="#B674E7" opacity="1.000000" stroke="none" 
	d="
M381.677399,268.943512 
	C380.915497,269.458069 380.254028,269.632660 379.351868,269.917358 
	C377.773010,269.256378 376.434906,268.485291 375.391968,267.333679 
	C376.126923,266.938446 376.566742,266.923798 377.006531,266.909119 
	C378.331573,266.944763 379.656647,266.980438 381.364441,267.107300 
	C381.757416,267.666870 381.767639,268.135193 381.677399,268.943512 
z"/>
<path fill="#8D46CE" opacity="1.000000" stroke="none" 
	d="
M377.011444,266.515747 
	C376.566742,266.923798 376.126923,266.938446 375.358215,266.973145 
	C375.039703,266.395020 375.050110,265.796875 375.126251,264.747742 
	C375.800110,264.905334 376.408234,265.513855 377.011444,266.515747 
z"/>
<path fill="#A04EE8" opacity="1.000000" stroke="none" 
	d="
M240.870575,177.829651 
	C240.830170,178.060837 240.391556,178.008850 240.172653,177.976898 
	C240.037598,177.640244 240.212372,177.402435 240.696228,177.180328 
	C240.914368,177.129135 240.910980,177.598480 240.870575,177.829651 
z"/>
<path fill="#914ECF" opacity="1.000000" stroke="none" 
	d="
M295.079315,207.611038 
	C295.236115,207.223419 295.486542,207.220230 295.833313,207.603195 
	C295.927063,207.783401 295.549683,207.919800 295.549683,207.919800 
	C295.549683,207.919800 295.170380,207.789490 295.079315,207.611038 
z"/>
<path fill="#8F58C1" opacity="1.000000" stroke="none" 
	d="
M206.027710,249.565826 
	C206.069031,249.151520 206.338562,249.069611 206.837173,249.307312 
	C207.011078,249.445099 206.658142,249.736954 206.658142,249.736954 
	C206.658142,249.736954 206.200729,249.716385 206.027710,249.565826 
z"/>
</svg>